<?xml version="1.0" standalone="no"?>
<!DOCTYPE svg PUBLIC "-//W3C//DTD SVG 20010904//EN"
 "http://www.w3.org/TR/2001/REC-SVG-20010904/DTD/svg10.dtd">
<svg version="1.0" xmlns="http://www.w3.org/2000/svg"
 width="700.000000pt" height="700.000000pt" viewBox="0 0 700.000000 700.000000"
 preserveAspectRatio="xMidYMid meet">
<metadata>
Created by potrace 1.11, written by Peter Selinger 2001-2013
</metadata>
<g transform="translate(0.000000,700.000000) scale(0.100000,-0.100000)"
fill="#000000" stroke="none">
<path d="M3439 6461 l-29 -29 0 -332 0 -332 29 -29 c20 -20 39 -29 61 -29 22
0 41 9 61 29 l29 29 0 332 0 332 -29 29 c-20 20 -39 29 -61 29 -22 0 -41 -9
-61 -29z"/>
<path d="M1758 5774 c-31 -16 -52 -71 -40 -104 13 -34 459 -477 489 -485 58
-14 122 51 107 109 -3 14 -106 124 -235 253 -126 125 -231 230 -234 232 -13
10 -63 8 -87 -5z"/>
<path d="M5172 5782 c-28 -9 -471 -448 -483 -481 -14 -34 7 -88 39 -105 25
-12 76 -15 87 -5 32 28 465 464 466 468 0 3 2 14 4 24 6 32 -16 77 -46 92 -30
16 -32 16 -67 7z"/>
<path d="M3368 5285 c-2 -2 -25 -6 -53 -9 -119 -16 -294 -70 -390 -121 -95
-51 -110 -60 -185 -114 -263 -189 -446 -483 -509 -816 -16 -86 -19 -154 -20
-478 l-2 -378 30 -29 c40 -40 82 -40 122 -1 l29 29 1 354 c1 194 2 364 4 378
30 273 131 488 317 678 336 343 856 429 1284 212 61 -31 117 -62 125 -68 8 -6
43 -35 78 -63 205 -167 333 -383 397 -669 4 -19 9 -310 11 -647 4 -606 4 -612
-16 -632 -21 -21 -28 -21 -799 -21 -875 0 -838 3 -912 -73 -66 -69 -71 -95
-70 -414 1 -288 7 -345 47 -453 32 -84 86 -165 163 -241 197 -196 491 -252
750 -142 143 60 267 175 339 312 48 93 70 169 78 273 5 76 5 78 -25 108 -41
40 -83 41 -123 1 -23 -23 -29 -39 -30 -73 -4 -223 -162 -424 -379 -480 -235
-61 -476 49 -584 265 -19 40 -39 86 -43 102 -4 17 -8 156 -10 310 -3 235 -2
283 11 300 14 20 29 20 813 25 893 6 832 0 908 79 65 67 66 67 64 731 -1 614
-4 678 -44 819 -44 153 -109 288 -202 419 -42 58 -189 215 -239 253 -237 182
-513 276 -808 277 -69 0 -126 -1 -128 -3z"/>
</g>
</svg>
